<?xml version="1.0" standalone="no"?>
<!DOCTYPE svg PUBLIC "-//W3C//DTD SVG 20010904//EN"
 "http://www.w3.org/TR/2001/REC-SVG-20010904/DTD/svg10.dtd">
<svg version="1.0" xmlns="http://www.w3.org/2000/svg"
 width="337.000000pt" height="325.000000pt" viewBox="0 0 337.000000 325.000000"
 preserveAspectRatio="xMidYMid meet">

<g transform="translate(0.000000,325.000000) scale(0.100000,-0.100000)"
fill="#000000" stroke="none">
<path d="M1408 2660 c-81 -13 -173 -37 -248 -66 -88 -33 -226 -110 -222 -124
1 -6 -2 -9 -7 -6 -15 9 -109 -72 -174 -150 -57 -67 -140 -219 -153 -279 -6
-27 -3 -25 29 19 20 27 34 53 31 58 -3 5 -1 7 4 6 5 -2 34 23 65 54 31 32 88
79 127 106 38 27 66 53 62 57 -4 5 -2 5 5 1 7 -4 40 7 73 24 458 231 1112 113
1504 -272 l61 -60 -25 -11 c-14 -5 -86 -11 -160 -11 -119 -1 -147 2 -235 27
-142 40 -195 66 -241 122 -88 106 -179 123 -306 57 -40 -21 -72 -44 -70 -51 1
-7 -2 -9 -8 -6 -15 9 -154 -130 -145 -145 3 -6 2 -9 -3 -8 -12 4 -85 -89 -149
-190 -111 -177 -154 -375 -105 -485 27 -61 97 -136 151 -159 36 -17 56 -19
125 -13 115 9 199 30 281 70 79 38 185 129 246 211 54 73 115 198 129 265 12
54 9 150 -5 196 l-7 23 56 -26 c80 -36 203 -57 302 -50 85 6 195 35 229 60 18
13 21 12 38 -12 78 -115 136 -288 146 -431 l7 -106 18 80 c28 123 19 309 -22
432 -51 152 -117 262 -229 383 -181 195 -429 333 -713 395 -87 19 -375 29
-462 15z m62 -553 c0 -2 -12 -14 -27 -28 l-28 -24 24 28 c23 25 31 32 31 24z
m267 -90 c29 -15 61 -27 71 -27 50 0 85 -86 87 -212 0 -53 -3 -94 -7 -92 -4 3
-8 -3 -8 -13 0 -10 -13 -38 -29 -62 -17 -25 -27 -49 -24 -54 3 -6 1 -7 -5 -3
-10 6 -36 -27 -37 -46 0 -5 -4 -8 -10 -9 -15 -1 -45 -30 -42 -41 1 -6 -5 -12
-15 -13 -25 -5 -78 -47 -71 -58 3 -6 1 -7 -5 -3 -13 8 -56 -17 -46 -26 3 -3
-1 -6 -8 -5 -30 1 -49 -3 -45 -10 9 -14 -160 -15 -185 -2 -13 7 -26 12 -31 11
-4 -1 -6 1 -5 5 1 5 -6 24 -16 42 -39 73 -5 223 79 353 27 40 48 78 48 85 0 7
3 10 7 8 10 -6 70 81 62 90 -4 5 -2 5 5 1 12 -7 40 31 35 47 -1 5 1 6 6 3 12
-7 64 48 55 59 -5 4 -3 6 2 3 6 -3 19 -2 30 2 22 8 28 6 102 -33z"/>
<path d="M530 1808 c-79 -517 321 -1006 939 -1149 111 -26 366 -36 482 -20
351 52 640 244 777 516 29 59 65 165 58 172 -7 8 -56 -79 -50 -89 4 -6 3 -8
-4 -4 -13 8 -43 -33 -35 -48 3 -6 2 -8 -2 -3 -11 10 -106 -83 -98 -96 3 -6 2
-7 -4 -4 -12 7 -55 -21 -49 -32 3 -4 0 -8 -7 -8 -7 0 -43 -19 -81 -43 -83 -51
-135 -74 -243 -110 -46 -15 -80 -30 -75 -35 4 -5 2 -5 -5 -1 -7 4 -63 -1 -125
-10 -132 -19 -313 -15 -448 11 -371 72 -694 282 -870 567 -26 43 -49 76 -51
73 -3 -2 -5 4 -6 13 -1 9 -16 57 -33 106 -18 49 -37 132 -44 185 l-13 96 -13
-87z"/>
</g>
</svg>
